<svg width="20" height="20" viewBox="0 0 20 20" fill="none" xmlns="http://www.w3.org/2000/svg">
<path fill-rule="evenodd" clip-rule="evenodd" d="M19.6328 0.367164C19.7492 0.483256 19.8416 0.621169 19.9046 0.773003C19.9676 0.924837 20 1.08761 20 1.252C20 1.41638 19.9676 1.57916 19.9046 1.73099C19.8416 1.88282 19.7492 2.02074 19.6328 2.13683L2.13617 19.6335C1.9015 19.8682 1.58322 20 1.25134 20C0.919464 20 0.601181 19.8682 0.366509 19.6335C0.131837 19.3988 2.47267e-09 19.0805 0 18.7487C-2.47267e-09 18.4168 0.131837 18.0985 0.366509 17.8638L17.8632 0.367164C17.9793 0.250778 18.1172 0.158439 18.269 0.0954345C18.4208 0.0324304 18.5836 0 18.748 0C18.9124 0 19.0752 0.0324304 19.227 0.0954345C19.3788 0.158439 19.5167 0.250778 19.6328 0.367164Z" fill="white"/>
<path fill-rule="evenodd" clip-rule="evenodd" d="M0.367164 0.367164C0.250778 0.483256 0.158439 0.621169 0.0954345 0.773003C0.0324304 0.924837 0 1.08761 0 1.252C0 1.41638 0.0324304 1.57916 0.0954345 1.73099C0.158439 1.88282 0.250778 2.02074 0.367164 2.13683L17.8638 19.6335C18.0985 19.8682 18.4168 20 18.7487 20C19.0805 20 19.3988 19.8682 19.6335 19.6335C19.8682 19.3988 20 19.0805 20 18.7487C20 18.4168 19.8682 18.0985 19.6335 17.8638L2.13683 0.367164C2.02074 0.250778 1.88282 0.158439 1.73099 0.0954345C1.57916 0.0324304 1.41638 0 1.252 0C1.08761 0 0.924837 0.0324304 0.773003 0.0954345C0.621169 0.158439 0.483256 0.250778 0.367164 0.367164Z" fill="white"/>
</svg>
