<svg xmlns="http://www.w3.org/2000/svg"><symbol id="icon-account" viewBox="0 0 19 20">
<path d="M9.5 0C6.62812 0 4.29167 2.33646 4.29167 5.20833C4.29167 8.08021 6.62812 10.4167 9.5 10.4167C12.3719 10.4167 14.7083 8.08021 14.7083 5.20833C14.7083 2.33646 12.3719 0 9.5 0ZM9.5 8.33333C7.77708 8.33333 6.375 6.93125 6.375 5.20833C6.375 3.48542 7.77708 2.08333 9.5 2.08333C11.2229 2.08333 12.625 3.48542 12.625 5.20833C12.625 6.93125 11.2229 8.33333 9.5 8.33333ZM18.875 19.7917V18.75C18.875 14.7302 15.6031 11.4583 11.5833 11.4583H7.41667C3.39583 11.4583 0.125 14.7302 0.125 18.75V19.7917H2.20833V18.75C2.20833 15.8781 4.54479 13.5417 7.41667 13.5417H11.5833C14.4552 13.5417 16.7917 15.8781 16.7917 18.75V19.7917H18.875Z" fill="white"/>
</symbol><symbol id="icon-arrow-left" viewBox="0 0 14 25">
<path d="M12.25 1L1 12.25L12.25 23.5" stroke="#1F394B" stroke-width="2" stroke-linecap="round" stroke-linejoin="round" fill="none"/>
</symbol><symbol id="icon-arrow-right" viewBox="0 0 14 25">
<path d="M1 1L12.25 12.25L1 23.5" stroke="#1F394B" stroke-width="2" stroke-linecap="round" stroke-linejoin="round" fill="none"/>
</symbol><symbol id="icon-arrow" viewBox="0 0 15 11">
<path d="M14 1L7.5 10L1 1" stroke="white" stroke-width="2" stroke-linecap="round" stroke-linejoin="round" fill="none"/>
</symbol><symbol id="icon-facebook" viewBox="0 0 37 37">
<path fill-rule="evenodd" clip-rule="evenodd" d="M16.1731 28.0418H20.1994V18.2973H22.8853L23.2412 14.9397H20.1994L20.2036 13.2585C20.2036 12.3833 20.2871 11.9134 21.5433 11.9134H23.2221V8.55522H20.5355C17.3086 8.55522 16.1731 10.1845 16.1731 12.9236V14.9397H14.1618V18.2979H16.1731V28.0418ZM18.7015 36.209C8.81012 36.209 0.791016 28.1898 0.791016 18.2985C0.791016 8.40657 8.81012 0.388062 18.7015 0.388062C28.5928 0.388062 36.6119 8.40657 36.6119 18.2985C36.6119 28.1898 28.5928 36.209 18.7015 36.209Z" fill="#1F394B"/>
</symbol><symbol id="icon-insta" viewBox="0 0 37 37">
<path fill-rule="evenodd" clip-rule="evenodd" d="M24.2364 13.8675V13.8639C24.5361 13.8639 24.8364 13.8699 25.1367 13.8627C25.5224 13.8531 25.8364 13.5224 25.8364 13.1361C25.8364 12.5612 25.8364 11.9857 25.8364 11.4107C25.8364 10.9982 25.5098 10.6704 25.0985 10.6699C24.5247 10.6699 23.951 10.6693 23.3773 10.6699C22.9665 10.6704 22.6394 10.9994 22.6394 11.4119C22.6388 11.9821 22.637 12.5522 22.6412 13.1224C22.6418 13.2078 22.6579 13.2961 22.6847 13.3767C22.788 13.68 23.0662 13.8663 23.4065 13.8681C23.683 13.8681 23.96 13.8675 24.2364 13.8675ZM18.7015 14.6072C16.6812 14.606 15.0388 16.2316 15.0107 18.2424C14.9815 20.3081 16.6346 21.9445 18.6167 21.9869C20.6788 22.031 22.3468 20.3833 22.3904 18.3791C22.4352 16.3134 20.7683 14.606 18.7015 14.6072ZM11.5647 16.5767V16.6257C11.5647 19.3212 11.5641 22.0167 11.5647 24.7122C11.5647 25.0997 11.9003 25.4334 12.2883 25.4334C16.563 25.434 20.837 25.434 25.1116 25.4334C25.5033 25.4334 25.837 25.1009 25.837 24.7098C25.8376 22.0179 25.837 19.3248 25.837 16.6334V16.5773H24.0985C24.3438 17.3618 24.4191 18.16 24.323 18.9737C24.2268 19.7875 23.9641 20.5445 23.5373 21.2442C23.1104 21.9439 22.5558 22.5248 21.8782 22.9863C20.1206 24.1839 17.8059 24.289 15.9403 23.2418C14.9976 22.7134 14.2573 21.9761 13.7403 21.0251C12.9707 19.6084 12.8477 18.1206 13.2991 16.5767C12.7212 16.5767 12.1468 16.5767 11.5647 16.5767ZM25.988 27.406C26.083 27.3904 26.1779 27.3767 26.2716 27.3564C27.0155 27.1982 27.6233 26.5779 27.7689 25.8298C27.7838 25.7481 27.7958 25.6669 27.8089 25.5857V11.0113C27.7964 10.9319 27.785 10.8513 27.7701 10.7719C27.6101 9.95582 26.9367 9.32239 26.1104 9.20896C26.0758 9.20478 26.043 9.19702 26.0089 9.19105H11.3946C11.3068 9.20717 11.2179 9.21911 11.1313 9.23881C10.3241 9.42269 9.72713 10.0722 9.61191 10.8901C9.60713 10.9242 9.59997 10.9582 9.5946 10.9922V25.606C9.61131 25.6979 9.62445 25.7916 9.64534 25.8836C9.82385 26.6728 10.4973 27.2848 11.2991 27.3881C11.3373 27.3928 11.3767 27.4006 11.4155 27.406H25.988ZM18.7015 36.209C8.81012 36.209 0.791016 28.1898 0.791016 18.2985C0.791016 8.40657 8.81012 0.388062 18.7015 0.388062C28.5928 0.388062 36.6119 8.40657 36.6119 18.2985C36.6119 28.1898 28.5928 36.209 18.7015 36.209Z" fill="#1F394B"/>
</symbol><symbol id="icon-mail" viewBox="0 0 24 24">
<path d="M1 13H8V15H1V13ZM3 16H9V18H3V16ZM6 19H10V21H6V19Z" fill="#1F394B"/>
<path d="M19 5H5C3.897 5 3 5.897 3 7V12H5V9L11.4 13.8C11.5732 13.9297 11.7837 13.9998 12 13.9998C12.2163 13.9998 12.4268 13.9297 12.6 13.8L19 9V18H11V20H19C20.103 20 21 19.103 21 18V7C21 5.897 20.103 5 19 5ZM12 11.75L5.666 7H18.334L12 11.75Z" fill="black"/>
</symbol><symbol id="icon-phone" viewBox="0 0 24 24">
<path d="M17.7073 12.293C17.6145 12.2001 17.5043 12.1263 17.383 12.076C17.2617 12.0257 17.1317 11.9998 17.0003 11.9998C16.869 11.9998 16.739 12.0257 16.6176 12.076C16.4963 12.1263 16.3861 12.2001 16.2933 12.293L14.6993 13.887C13.9603 13.667 12.5813 13.167 11.7073 12.293C10.8333 11.419 10.3333 10.04 10.1133 9.30102L11.7073 7.70702C11.8003 7.61423 11.874 7.50403 11.9243 7.38271C11.9746 7.2614 12.0005 7.13135 12.0005 7.00002C12.0005 6.86868 11.9746 6.73864 11.9243 6.61732C11.874 6.49601 11.8003 6.38581 11.7073 6.29302L7.70733 2.29302C7.61455 2.20007 7.50434 2.12633 7.38303 2.07602C7.26171 2.02571 7.13167 1.99982 7.00033 1.99982C6.869 1.99982 6.73896 2.02571 6.61764 2.07602C6.49633 2.12633 6.38612 2.20007 6.29333 2.29302L3.58133 5.00502C3.20133 5.38502 2.98733 5.90702 2.99533 6.44002C3.01833 7.86402 3.39533 12.81 7.29333 16.708C11.1913 20.606 16.1373 20.982 17.5623 21.006H17.5903C18.1183 21.006 18.6173 20.798 18.9953 20.42L21.7073 17.708C21.8003 17.6152 21.874 17.505 21.9243 17.3837C21.9746 17.2624 22.0005 17.1324 22.0005 17.001C22.0005 16.8697 21.9746 16.7396 21.9243 16.6183C21.874 16.497 21.8003 16.3868 21.7073 16.294L17.7073 12.293ZM17.5803 19.005C16.3323 18.984 12.0623 18.649 8.70733 15.293C5.34133 11.927 5.01533 7.64202 4.99533 6.41902L7.00033 4.41402L9.58633 7.00002L8.29333 8.29302C8.1758 8.41047 8.08938 8.55536 8.04189 8.71459C7.9944 8.87382 7.98733 9.04237 8.02133 9.20502C8.04533 9.32002 8.63233 12.047 10.2923 13.707C11.9523 15.367 14.6793 15.954 14.7943 15.978C14.9569 16.013 15.1256 16.0065 15.285 15.9591C15.4444 15.9118 15.5893 15.8251 15.7063 15.707L17.0003 14.414L19.5863 17L17.5803 19.005Z"/>
</symbol><symbol id="icon-search" viewBox="0 0 20 20">
<path d="M8.41634 16.6667C10.2653 16.6663 12.0609 16.0473 13.5174 14.9083L18.0965 19.4875L19.5695 18.0146L14.9903 13.4354C16.1299 11.9788 16.7492 10.1827 16.7497 8.33333C16.7497 3.73854 13.0111 0 8.41634 0C3.82155 0 0.0830078 3.73854 0.0830078 8.33333C0.0830078 12.9281 3.82155 16.6667 8.41634 16.6667ZM8.41634 2.08333C11.8632 2.08333 14.6663 4.88646 14.6663 8.33333C14.6663 11.7802 11.8632 14.5833 8.41634 14.5833C4.96947 14.5833 2.16634 11.7802 2.16634 8.33333C2.16634 4.88646 4.96947 2.08333 8.41634 2.08333Z" fill="white"/>
</symbol><symbol id="icon-tumblr" viewBox="0 0 37 37">
<path fill-rule="evenodd" clip-rule="evenodd" d="M12.802 13.6907V17.0215H14.4677V22.0185C14.599 26.1045 16.845 26.9558 19.4641 27.2376C20.9865 27.1612 22.8516 26.5976 23.7943 25.849V23.0179C22.5817 24.1964 19.3262 25.3522 18.7423 22.0185L18.6862 16.9666L23.7943 17.0221V13.6358H18.6862L18.7978 9.3606L16.7441 9.41612C16.885 13.0621 14.9471 13.5504 12.802 13.6907ZM18.2981 36.209C8.4068 36.209 0.387695 28.1898 0.387695 18.2985C0.387695 8.40657 8.4068 0.388062 18.2981 0.388062C28.1895 0.388062 36.2086 8.40657 36.2086 18.2985C36.2086 28.1898 28.1895 36.209 18.2981 36.209Z" fill="#1F394B"/>
</symbol><symbol id="icon-youtube" viewBox="0 0 37 37">
<path fill-rule="evenodd" clip-rule="evenodd" d="M23.9859 22.6806C23.8199 22.6806 23.7005 22.7272 23.6277 22.8263C23.5555 22.9194 23.5202 23.0794 23.5202 23.3015V23.8364H24.4414V23.3015C24.4414 23.0794 24.4044 22.9194 24.331 22.8263C24.2617 22.7272 24.1441 22.6806 23.9859 22.6806ZM20.3931 22.6621C20.5328 22.6621 20.642 22.7075 20.7178 22.7994C20.7913 22.8913 20.8283 23.0281 20.8283 23.2066V25.9433C20.8283 26.114 20.7966 26.234 20.7369 26.3081C20.6772 26.3839 20.5841 26.4209 20.4564 26.4209C20.368 26.4209 20.285 26.4012 20.205 26.3636C20.1244 26.3266 20.0414 26.2615 19.9572 26.1767V22.8746C20.0283 22.8018 20.0999 22.7475 20.1722 22.7128C20.2444 22.6776 20.3178 22.6621 20.3931 22.6621ZM23.5208 24.6615V25.6597C23.5208 25.9391 23.5549 26.1325 23.6223 26.2412C23.6928 26.3493 23.8092 26.4018 23.9757 26.4018C24.1483 26.4018 24.2689 26.3564 24.3375 26.2651C24.4056 26.1737 24.442 25.9731 24.442 25.6603V25.4185H25.5137V25.6907C25.5137 26.2346 25.3841 26.6436 25.1214 26.92C24.8617 27.194 24.4713 27.3301 23.9525 27.3301C23.4862 27.3301 23.1178 27.1857 22.8498 26.8937C22.5823 26.6036 22.4462 26.203 22.4462 25.6913V23.3116C22.4462 22.8531 22.5949 22.477 22.8892 22.1881C23.1835 21.8985 23.5626 21.754 24.0301 21.754C24.5071 21.754 24.8737 21.8884 25.1304 22.1564C25.3865 22.4239 25.5137 22.809 25.5137 23.3116V24.6633H23.5208V24.6615ZM21.6552 26.9522C21.4934 27.1528 21.2558 27.2513 20.9465 27.2513C20.7417 27.2513 20.5608 27.2143 20.402 27.1367C20.2426 27.0597 20.0922 26.9415 19.9566 26.7779V27.1845H18.9035V20.0012H19.9566V22.3146C20.0981 22.1534 20.2462 22.0293 20.4032 21.9463C20.5626 21.8615 20.722 21.8203 20.8838 21.8203C21.2146 21.8203 21.4659 21.9331 21.639 22.1576C21.8146 22.3839 21.9005 22.7146 21.9005 23.1487V26.0896C21.9005 26.4645 21.8187 26.7516 21.6552 26.9522ZM17.079 27.1845V26.6018C16.885 26.8173 16.6862 26.9815 16.4766 27.0925C16.2683 27.2066 16.0671 27.2609 15.8713 27.2609C15.6295 27.2609 15.4504 27.1839 15.3262 27.0245C15.2062 26.8657 15.1441 26.6316 15.1441 26.3146V21.8836H16.1853V25.9487C16.1853 26.0746 16.2074 26.1648 16.2492 26.2215C16.2952 26.2782 16.3662 26.3057 16.4629 26.3057C16.5393 26.3057 16.6372 26.2687 16.7543 26.1934C16.8719 26.1188 16.9781 26.0245 17.0778 25.9098V21.8836H18.119V27.1839H17.079V27.1845ZM13.4719 21.0448V27.1845H12.2969V21.0448H11.0826V20.0012H14.6862V21.0448H13.4719ZM18.2946 17.6884C18.2946 17.6878 25.5065 17.6991 26.3626 18.554C27.2217 19.4107 27.2313 23.637 27.2313 23.6615C27.2313 23.6615 27.2241 27.9104 26.3626 28.7696C25.5065 29.6233 18.2946 29.6418 18.2946 29.6418C18.2946 29.6418 11.0832 29.6233 10.2253 28.769C9.3668 27.9122 9.36501 23.6931 9.36501 23.6609C9.36501 23.6364 9.3674 19.4101 10.2253 18.5534C11.0838 17.6991 18.2946 17.6878 18.2946 17.6884ZM23.9817 15.4657H22.808V14.8209C22.5943 15.0579 22.3686 15.2406 22.1334 15.3636C21.8993 15.4878 21.6731 15.5499 21.4528 15.5499C21.1793 15.5499 20.9769 15.4627 20.8396 15.289C20.7029 15.1152 20.6337 14.8549 20.6337 14.5063V9.62746H21.805V14.1033C21.805 14.2412 21.8319 14.3415 21.8808 14.403C21.9286 14.4651 22.0098 14.4961 22.119 14.4961C22.2044 14.4961 22.3143 14.4549 22.4462 14.3731C22.5775 14.2913 22.6987 14.1869 22.8074 14.0585V9.62746H23.9811V15.4657H23.9817ZM17.6098 14.4704C17.6928 14.5582 17.8122 14.6012 17.968 14.6012C18.1268 14.6012 18.2522 14.5564 18.3465 14.4681C18.4402 14.3773 18.4868 14.2543 18.4868 14.0991V10.9188C18.4868 10.791 18.439 10.6878 18.3429 10.609C18.2474 10.5307 18.122 10.4919 17.968 10.4919C17.8241 10.4919 17.7083 10.5307 17.6181 10.609C17.5298 10.6878 17.4838 10.791 17.4838 10.9188V14.0991C17.4838 14.2585 17.5268 14.3815 17.6098 14.4704ZM16.7507 9.88239C17.0659 9.61433 17.4916 9.48 18.0235 9.48C18.5083 9.48 18.9071 9.62149 19.2181 9.90448C19.5268 10.1869 19.682 10.551 19.682 10.9958V14.0113C19.682 14.5104 19.5298 14.9015 19.2271 15.1863C18.9208 15.4704 18.5035 15.6125 17.9698 15.6125C17.4575 15.6125 17.0462 15.4657 16.7375 15.1731C16.4313 14.8794 16.2766 14.4848 16.2766 13.9887V10.963C16.2761 10.5099 16.4337 10.1499 16.7507 9.88239ZM13.0814 7.55224H11.7507L13.3232 12.3301V15.4657H14.6444V12.1821L16.1811 7.55224H14.8378L14.0223 10.7152H13.9393L13.0814 7.55224ZM18.2981 36.209C8.4068 36.209 0.387695 28.1898 0.387695 18.2985C0.387695 8.40657 8.4068 0.388062 18.2981 0.388062C28.1895 0.388062 36.2086 8.40657 36.2086 18.2985C36.2086 28.1898 28.1895 36.209 18.2981 36.209Z" fill="#1F394B"/>
</symbol></svg>